<svg width="200" height="200" viewBox="0 0 200 200" fill="none" xmlns="http://www.w3.org/2000/svg">
<rect width="200" height="200" rx="24" fill="#1E293B"/>
<path d="M100 130C127.614 130 150 107.614 150 80C150 52.3858 127.614 30 100 30C72.3858 30 50 52.3858 50 80C50 107.614 72.3858 130 100 130Z" fill="#38BDF8" fill-opacity="0.1"/>
<path d="M100 120C122.091 120 140 102.091 140 80C140 57.9086 122.091 40 100 40C77.9086 40 60 57.9086 60 80C60 102.091 77.9086 120 100 120Z" stroke="#38BDF8" stroke-width="4"/>
<path d="M85 80L95 90L115 70" stroke="#38BDF8" stroke-width="4" stroke-linecap="round" stroke-linejoin="round"/>
<rect x="70" y="110" width="60" height="60" rx="8" fill="#0F172A" stroke="#38BDF8" stroke-width="2"/>
<path d="M90 130H110" stroke="#38BDF8" stroke-width="2" stroke-linecap="round"/>
<path d="M90 145H105" stroke="#38BDF8" stroke-width="2" stroke-linecap="round"/>
</svg>
