<svg width="200" height="160" viewBox="0 0 200 160" fill="none" xmlns="http://www.w3.org/2000/svg">
<path d="M174.524 93.606C184.225 106.883 175.787 124.935 160.038 129.563C142.176 134.811 118.735 137.95 91.2403 135.531C61.424 132.908 34.0203 118.397 25.1009 97.464C16.892 78.2045 35.845 57.7303 61.166 45.4716C85.7381 33.5772 121.249 32.8943 150.222 46.2241C167.319 54.0911 169.561 72.0792 165.73 83.2125" fill="#1E293B" fill-opacity="0.5"/>
<rect x="70" y="50" width="60" height="50" rx="4" fill="#334155"/>
<path d="M70 54C70 51.7909 71.7909 50 74 50H126C128.209 50 130 51.7909 130 54V65L100 80L70 65V54Z" fill="#475569"/>
<path d="M85 70L80 75M120 70L115 75" stroke="#64748B" stroke-width="2" stroke-linecap="round"/>
<circle cx="120" cy="100" r="16" fill="#0F172A" stroke="#38BDF8" stroke-width="3"/>
<path d="M132 112L142 122" stroke="#38BDF8" stroke-width="3" stroke-linecap="round"/>
</svg>
