<svg width="48" height="48" viewBox="0 0 48 48" fill="none" xmlns="http://www.w3.org/2000/svg">
<rect width="48" height="48" rx="12" fill="url(#paint0_linear)"/>
<path d="M24 10C16.268 10 10 16.268 10 24C10 31.732 16.268 38 24 38C31.732 38 38 31.732 38 24C38 16.268 31.732 10 24 10ZM24 34C18.477 34 14 29.523 14 24C14 18.477 18.477 14 24 14C29.523 14 34 18.477 34 24C34 29.523 29.523 34 24 34Z" fill="white" fill-opacity="0.2"/>
<path d="M24 18L29 28H19L24 18Z" fill="white"/>
<defs>
<linearGradient id="paint0_linear" x1="0" y1="0" x2="48" y2="48" gradientUnits="userSpaceOnUse">
<stop stop-color="#38BDF8"/>
<stop offset="1" stop-color="#818CF8"/>
</linearGradient>
</defs>
</svg>
