<svg width="400" height="400" viewBox="0 0 400 400" fill="none" xmlns="http://www.w3.org/2000/svg" opacity="0.05">
  <!-- Constellation Nodes Randomly Placed -->
  <circle cx="50" cy="50" r="2" fill="#38BDF8"/>
  <circle cx="150" cy="80" r="2" fill="#38BDF8"/>
  <circle cx="250" cy="40" r="2" fill="#38BDF8"/>
  <circle cx="350" cy="100" r="2" fill="#38BDF8"/>
  
  <circle cx="80" cy="200" r="2" fill="#818CF8"/>
  <circle cx="200" cy="250" r="2" fill="#818CF8"/>
  <circle cx="320" cy="220" r="2" fill="#818CF8"/>
  
  <circle cx="40" cy="350" r="2" fill="#38BDF8"/>
  <circle cx="180" cy="320" r="2" fill="#38BDF8"/>
  <circle cx="300" cy="360" r="2" fill="#38BDF8"/>

  <!-- Connections -->
  <line x1="50" y1="50" x2="150" y2="80" stroke="#334155" stroke-width="0.5"/>
  <line x1="150" y1="80" x2="250" y2="40" stroke="#334155" stroke-width="0.5"/>
  <line x1="250" y1="40" x2="350" y2="100" stroke="#334155" stroke-width="0.5"/>
  
  <line x1="50" y1="50" x2="80" y2="200" stroke="#334155" stroke-width="0.5"/>
  <line x1="80" y1="200" x2="200" y2="250" stroke="#334155" stroke-width="0.5"/>
  <line x1="200" y1="250" x2="320" y2="220" stroke="#334155" stroke-width="0.5"/>
  <line x1="320" y1="220" x2="350" y2="100" stroke="#334155" stroke-width="0.5"/>
  
  <line x1="80" y1="200" x2="40" y2="350" stroke="#334155" stroke-width="0.5"/>
  <line x1="40" y1="350" x2="180" y2="320" stroke="#334155" stroke-width="0.5"/>
  <line x1="180" y1="320" x2="200" y2="250" stroke="#334155" stroke-width="0.5"/>
  <line x1="200" y1="250" x2="300" y2="360" stroke="#334155" stroke-width="0.5"/>
</svg>
