<svg width="24" height="24" viewBox="0 0 24 24" fill="none" xmlns="http://www.w3.org/2000/svg">
<path d="M10.29 3.86L1.82 18C1.64538 18.3024 1.55297 18.6453 1.55196 18.9945C1.55095 19.3437 1.64137 19.6869 1.81443 19.9893C1.98749 20.2918 2.23727 20.5429 2.53916 20.7176C2.84105 20.8924 3.18469 20.9847 3.534 20.9847H20.47C20.8193 20.9847 21.1629 20.8924 21.4648 20.7176C21.7667 20.5429 22.0165 20.2918 22.1896 19.9893C22.3626 19.6869 22.453 19.3437 22.452 18.9945C22.451 18.6453 22.3586 18.3024 22.184 18L13.714 3.86C13.5393 3.5576 13.2892 3.3065 12.9873 3.13175C12.6854 2.95701 12.3417 2.86475 11.9925 2.86475C11.6432 2.86475 11.2996 2.95701 10.9977 3.13175C10.6957 3.3065 10.4456 3.5576 10.271 3.86H10.29Z" stroke="#F59E0B" stroke-width="2" stroke-linecap="round" stroke-linejoin="round"/>
<path d="M12 9V13" stroke="#F59E0B" stroke-width="2" stroke-linecap="round" stroke-linejoin="round"/>
<path d="M12 17H12.01" stroke="#F59E0B" stroke-width="2" stroke-linecap="round" stroke-linejoin="round"/>
</svg>
