<svg width="24" height="24" viewBox="0 0 24 24" fill="none" xmlns="http://www.w3.org/2000/svg">
<path d="M17.94 17.94C16.2306 19.3175 14.1396 20.0469 11.9472 19.991C9.75475 19.9351 7.64366 19.0986 6 17.66M1 1L23 23M9.9 4.24C10.5883 4.0789 11.2931 3.99836 12 4C19 4 23 12 23 12C22.393 13.1356 21.6691 14.2048 20.84 15.19" stroke="#94A3B8" stroke-width="2" stroke-linecap="round" stroke-linejoin="round"/>
<path d="M14.12 14.12C13.8407 14.4026 13.5077 14.6269 13.1407 14.7797C12.7738 14.9324 12.3802 15.0105 11.9831 15.0093C11.5859 15.008 11.1931 14.9276 10.8277 14.7727C10.4624 14.6177 10.1317 14.3915 9.85501 14.1072C9.57833 13.8229 9.36113 13.4862 9.21626 13.1171C9.07139 12.748 8.905 12.3538 8.91494 11.9575C8.92095 11.5612 9.00696 11.171 9.16788 10.8092C9.3288 10.4475 9.56143 10.1216 9.852 9.85099" stroke="#94A3B8" stroke-width="2" stroke-linecap="round" stroke-linejoin="round"/>
</svg>
